<mxfile host="app.diagrams.net" agent="Mozilla/5.0 (Windows NT 10.0; Win64; x64) AppleWebKit/537.36 (KHTML, like Gecko) Chrome/141.0.0.0 Safari/537.36" version="28.2.7" pages="2">
  <diagram name="Halaman-1" id="KEyJqbj-pxpE6urd5x7X">
    <mxGraphModel dx="3143" dy="1133" grid="1" gridSize="10" guides="1" tooltips="1" connect="1" arrows="1" fold="1" page="1" pageScale="1" pageWidth="827" pageHeight="1169" math="0" shadow="0">
      <root>
        <mxCell id="0" />
        <mxCell id="1" parent="0" />
        <mxCell id="IcXW7nWZAzovRGgsZB6D-3" value="" style="edgeStyle=orthogonalEdgeStyle;rounded=0;orthogonalLoop=1;jettySize=auto;html=1;" parent="1" source="IcXW7nWZAzovRGgsZB6D-1" target="K_0mTCyf2OrHfbUbCCtL-97" edge="1">
          <mxGeometry relative="1" as="geometry">
            <mxPoint x="230" y="130" as="targetPoint" />
            <Array as="points">
              <mxPoint x="230" y="160" />
              <mxPoint x="230" y="160" />
            </Array>
          </mxGeometry>
        </mxCell>
        <mxCell id="IcXW7nWZAzovRGgsZB6D-1" value="START" style="ellipse;whiteSpace=wrap;html=1;" parent="1" vertex="1">
          <mxGeometry x="188.75" y="10" width="80" height="50" as="geometry" />
        </mxCell>
        <mxCell id="IcXW7nWZAzovRGgsZB6D-19" value="" style="edgeStyle=orthogonalEdgeStyle;rounded=0;orthogonalLoop=1;jettySize=auto;html=1;" parent="1" target="IcXW7nWZAzovRGgsZB6D-6" edge="1">
          <mxGeometry relative="1" as="geometry">
            <mxPoint x="230.00000000000023" y="220" as="sourcePoint" />
          </mxGeometry>
        </mxCell>
        <mxCell id="IcXW7nWZAzovRGgsZB6D-13" value="" style="edgeStyle=orthogonalEdgeStyle;rounded=0;orthogonalLoop=1;jettySize=auto;html=1;" parent="1" source="IcXW7nWZAzovRGgsZB6D-6" edge="1">
          <mxGeometry relative="1" as="geometry">
            <mxPoint x="230" y="370" as="targetPoint" />
          </mxGeometry>
        </mxCell>
        <mxCell id="g7_bMHw2WcFkJygGpaWP-1" value="benar" style="edgeLabel;html=1;align=center;verticalAlign=middle;resizable=0;points=[];" parent="IcXW7nWZAzovRGgsZB6D-13" vertex="1" connectable="0">
          <mxGeometry x="0.272" y="2" relative="1" as="geometry">
            <mxPoint x="18" y="-15" as="offset" />
          </mxGeometry>
        </mxCell>
        <mxCell id="g7_bMHw2WcFkJygGpaWP-3" value="" style="edgeStyle=orthogonalEdgeStyle;rounded=0;orthogonalLoop=1;jettySize=auto;html=1;" parent="1" source="IcXW7nWZAzovRGgsZB6D-6" target="g7_bMHw2WcFkJygGpaWP-2" edge="1">
          <mxGeometry relative="1" as="geometry" />
        </mxCell>
        <mxCell id="IcXW7nWZAzovRGgsZB6D-6" value="menu awal ==&amp;nbsp;&lt;span style=&quot;background-color: transparent; color: light-dark(rgb(0, 0, 0), rgb(255, 255, 255));&quot;&gt;1 ?&lt;/span&gt;" style="rhombus;whiteSpace=wrap;html=1;" parent="1" vertex="1">
          <mxGeometry x="190" y="250" width="80" height="80" as="geometry" />
        </mxCell>
        <mxCell id="g7_bMHw2WcFkJygGpaWP-5" value="" style="edgeStyle=orthogonalEdgeStyle;rounded=0;orthogonalLoop=1;jettySize=auto;html=1;" parent="1" source="g7_bMHw2WcFkJygGpaWP-2" target="g7_bMHw2WcFkJygGpaWP-4" edge="1">
          <mxGeometry relative="1" as="geometry" />
        </mxCell>
        <mxCell id="K_0mTCyf2OrHfbUbCCtL-93" value="" style="edgeStyle=orthogonalEdgeStyle;rounded=0;orthogonalLoop=1;jettySize=auto;html=1;" edge="1" parent="1" source="g7_bMHw2WcFkJygGpaWP-2" target="K_0mTCyf2OrHfbUbCCtL-92">
          <mxGeometry relative="1" as="geometry" />
        </mxCell>
        <mxCell id="g7_bMHw2WcFkJygGpaWP-2" value="menu awal==2&lt;div&gt;?&lt;/div&gt;" style="rhombus;whiteSpace=wrap;html=1;" parent="1" vertex="1">
          <mxGeometry x="350" y="250" width="80" height="80" as="geometry" />
        </mxCell>
        <mxCell id="K_0mTCyf2OrHfbUbCCtL-105" value="" style="edgeStyle=orthogonalEdgeStyle;rounded=0;orthogonalLoop=1;jettySize=auto;html=1;" edge="1" parent="1" source="g7_bMHw2WcFkJygGpaWP-4" target="K_0mTCyf2OrHfbUbCCtL-104">
          <mxGeometry relative="1" as="geometry" />
        </mxCell>
        <mxCell id="K_0mTCyf2OrHfbUbCCtL-109" value="" style="edgeStyle=orthogonalEdgeStyle;rounded=0;orthogonalLoop=1;jettySize=auto;html=1;" edge="1" parent="1" source="g7_bMHw2WcFkJygGpaWP-4" target="K_0mTCyf2OrHfbUbCCtL-108">
          <mxGeometry relative="1" as="geometry" />
        </mxCell>
        <mxCell id="g7_bMHw2WcFkJygGpaWP-4" value="menu&amp;nbsp;&lt;div&gt;awal==3&lt;/div&gt;&lt;div&gt;?&lt;/div&gt;" style="rhombus;whiteSpace=wrap;html=1;" parent="1" vertex="1">
          <mxGeometry x="510" y="250" width="80" height="80" as="geometry" />
        </mxCell>
        <mxCell id="K_0mTCyf2OrHfbUbCCtL-1" value="input username&lt;div&gt;&amp;amp; password&lt;/div&gt;" style="shape=parallelogram;perimeter=parallelogramPerimeter;whiteSpace=wrap;html=1;fixedSize=1;" vertex="1" parent="1">
          <mxGeometry x="170" y="370" width="120" height="60" as="geometry" />
        </mxCell>
        <mxCell id="K_0mTCyf2OrHfbUbCCtL-2" value="" style="edgeStyle=orthogonalEdgeStyle;rounded=0;orthogonalLoop=1;jettySize=auto;html=1;" edge="1" parent="1">
          <mxGeometry relative="1" as="geometry">
            <mxPoint x="230" y="430" as="sourcePoint" />
            <mxPoint x="230" y="470" as="targetPoint" />
          </mxGeometry>
        </mxCell>
        <mxCell id="K_0mTCyf2OrHfbUbCCtL-7" value="" style="edgeStyle=orthogonalEdgeStyle;rounded=0;orthogonalLoop=1;jettySize=auto;html=1;" edge="1" parent="1" source="K_0mTCyf2OrHfbUbCCtL-3" target="K_0mTCyf2OrHfbUbCCtL-6">
          <mxGeometry relative="1" as="geometry" />
        </mxCell>
        <mxCell id="K_0mTCyf2OrHfbUbCCtL-11" value="" style="edgeStyle=orthogonalEdgeStyle;rounded=0;orthogonalLoop=1;jettySize=auto;html=1;" edge="1" parent="1" source="K_0mTCyf2OrHfbUbCCtL-3" target="K_0mTCyf2OrHfbUbCCtL-10">
          <mxGeometry relative="1" as="geometry" />
        </mxCell>
        <mxCell id="K_0mTCyf2OrHfbUbCCtL-3" value="login&amp;nbsp;&lt;div&gt;berhasil ?&lt;/div&gt;" style="rhombus;whiteSpace=wrap;html=1;" vertex="1" parent="1">
          <mxGeometry x="190" y="470" width="80" height="80" as="geometry" />
        </mxCell>
        <mxCell id="K_0mTCyf2OrHfbUbCCtL-9" value="" style="edgeStyle=orthogonalEdgeStyle;rounded=0;orthogonalLoop=1;jettySize=auto;html=1;entryX=0;entryY=0.5;entryDx=0;entryDy=0;" edge="1" parent="1" source="K_0mTCyf2OrHfbUbCCtL-6" target="K_0mTCyf2OrHfbUbCCtL-1">
          <mxGeometry relative="1" as="geometry">
            <mxPoint x="30" y="380" as="targetPoint" />
            <Array as="points">
              <mxPoint x="20" y="510" />
              <mxPoint x="20" y="400" />
            </Array>
          </mxGeometry>
        </mxCell>
        <mxCell id="K_0mTCyf2OrHfbUbCCtL-6" value="&lt;div&gt;output&lt;/div&gt;login gagal" style="shape=parallelogram;perimeter=parallelogramPerimeter;whiteSpace=wrap;html=1;fixedSize=1;" vertex="1" parent="1">
          <mxGeometry x="40" y="485" width="100" height="50" as="geometry" />
        </mxCell>
        <mxCell id="K_0mTCyf2OrHfbUbCCtL-13" value="" style="edgeStyle=orthogonalEdgeStyle;rounded=0;orthogonalLoop=1;jettySize=auto;html=1;" edge="1" parent="1" source="K_0mTCyf2OrHfbUbCCtL-10" target="K_0mTCyf2OrHfbUbCCtL-12">
          <mxGeometry relative="1" as="geometry" />
        </mxCell>
        <mxCell id="K_0mTCyf2OrHfbUbCCtL-10" value="cek role" style="whiteSpace=wrap;html=1;" vertex="1" parent="1">
          <mxGeometry x="185" y="590" width="90" height="40" as="geometry" />
        </mxCell>
        <mxCell id="K_0mTCyf2OrHfbUbCCtL-15" value="" style="edgeStyle=orthogonalEdgeStyle;rounded=0;orthogonalLoop=1;jettySize=auto;html=1;" edge="1" parent="1" source="K_0mTCyf2OrHfbUbCCtL-12">
          <mxGeometry relative="1" as="geometry">
            <mxPoint x="140" y="710" as="targetPoint" />
          </mxGeometry>
        </mxCell>
        <mxCell id="K_0mTCyf2OrHfbUbCCtL-25" value="" style="edgeStyle=orthogonalEdgeStyle;rounded=0;orthogonalLoop=1;jettySize=auto;html=1;" edge="1" parent="1" source="K_0mTCyf2OrHfbUbCCtL-12" target="K_0mTCyf2OrHfbUbCCtL-24">
          <mxGeometry relative="1" as="geometry" />
        </mxCell>
        <mxCell id="K_0mTCyf2OrHfbUbCCtL-12" value="apakah&lt;div&gt;admin?&lt;/div&gt;" style="rhombus;whiteSpace=wrap;html=1;" vertex="1" parent="1">
          <mxGeometry x="190" y="670" width="80" height="80" as="geometry" />
        </mxCell>
        <mxCell id="K_0mTCyf2OrHfbUbCCtL-16" value="benar" style="text;html=1;whiteSpace=wrap;strokeColor=none;fillColor=none;align=center;verticalAlign=middle;rounded=0;" vertex="1" parent="1">
          <mxGeometry x="170" y="550" width="60" height="30" as="geometry" />
        </mxCell>
        <mxCell id="K_0mTCyf2OrHfbUbCCtL-17" value="salah" style="text;html=1;whiteSpace=wrap;strokeColor=none;fillColor=none;align=center;verticalAlign=middle;rounded=0;" vertex="1" parent="1">
          <mxGeometry x="140" y="480" width="60" height="30" as="geometry" />
        </mxCell>
        <mxCell id="K_0mTCyf2OrHfbUbCCtL-18" value="salah" style="text;html=1;whiteSpace=wrap;strokeColor=none;fillColor=none;align=center;verticalAlign=middle;rounded=0;" vertex="1" parent="1">
          <mxGeometry x="150" y="680" width="60" height="30" as="geometry" />
        </mxCell>
        <mxCell id="K_0mTCyf2OrHfbUbCCtL-21" value="salah" style="text;html=1;whiteSpace=wrap;strokeColor=none;fillColor=none;align=center;verticalAlign=middle;rounded=0;" vertex="1" parent="1">
          <mxGeometry x="275" y="260" width="60" height="30" as="geometry" />
        </mxCell>
        <mxCell id="K_0mTCyf2OrHfbUbCCtL-23" value="salah" style="text;html=1;whiteSpace=wrap;strokeColor=none;fillColor=none;align=center;verticalAlign=middle;rounded=0;" vertex="1" parent="1">
          <mxGeometry x="440" y="260" width="60" height="30" as="geometry" />
        </mxCell>
        <mxCell id="K_0mTCyf2OrHfbUbCCtL-28" value="" style="edgeStyle=orthogonalEdgeStyle;rounded=0;orthogonalLoop=1;jettySize=auto;html=1;" edge="1" parent="1" source="K_0mTCyf2OrHfbUbCCtL-24" target="K_0mTCyf2OrHfbUbCCtL-27">
          <mxGeometry relative="1" as="geometry" />
        </mxCell>
        <mxCell id="K_0mTCyf2OrHfbUbCCtL-24" value="output&lt;div&gt;1. Lihat data laptop&lt;/div&gt;&lt;div&gt;2. Tambah data laptop&lt;/div&gt;&lt;div&gt;3. Update data laptop&lt;/div&gt;&lt;div&gt;4. Hapus data laptop&lt;/div&gt;&lt;div&gt;5. Logout&lt;/div&gt;" style="shape=parallelogram;perimeter=parallelogramPerimeter;whiteSpace=wrap;html=1;fixedSize=1;" vertex="1" parent="1">
          <mxGeometry x="132.5" y="800" width="195" height="90" as="geometry" />
        </mxCell>
        <mxCell id="K_0mTCyf2OrHfbUbCCtL-26" value="benar" style="text;html=1;whiteSpace=wrap;strokeColor=none;fillColor=none;align=center;verticalAlign=middle;rounded=0;" vertex="1" parent="1">
          <mxGeometry x="170" y="760" width="60" height="30" as="geometry" />
        </mxCell>
        <mxCell id="K_0mTCyf2OrHfbUbCCtL-30" value="" style="edgeStyle=orthogonalEdgeStyle;rounded=0;orthogonalLoop=1;jettySize=auto;html=1;" edge="1" parent="1" source="K_0mTCyf2OrHfbUbCCtL-27" target="K_0mTCyf2OrHfbUbCCtL-29">
          <mxGeometry relative="1" as="geometry" />
        </mxCell>
        <mxCell id="K_0mTCyf2OrHfbUbCCtL-27" value="input pilihan" style="shape=parallelogram;perimeter=parallelogramPerimeter;whiteSpace=wrap;html=1;fixedSize=1;" vertex="1" parent="1">
          <mxGeometry x="170" y="940" width="117.5" height="40" as="geometry" />
        </mxCell>
        <mxCell id="K_0mTCyf2OrHfbUbCCtL-29" value="" style="verticalLabelPosition=bottom;verticalAlign=top;html=1;shape=offPageConnector;rounded=0;size=0.5;" vertex="1" parent="1">
          <mxGeometry x="198.75" y="1030" width="60" height="60" as="geometry" />
        </mxCell>
        <mxCell id="K_0mTCyf2OrHfbUbCCtL-31" value="B" style="text;html=1;whiteSpace=wrap;strokeColor=none;fillColor=none;align=center;verticalAlign=middle;rounded=0;" vertex="1" parent="1">
          <mxGeometry x="198.75" y="1040" width="60" height="30" as="geometry" />
        </mxCell>
        <mxCell id="K_0mTCyf2OrHfbUbCCtL-32" value="" style="verticalLabelPosition=bottom;verticalAlign=top;html=1;shape=offPageConnector;rounded=0;size=0.5;" vertex="1" parent="1">
          <mxGeometry x="-150" y="510" width="60" height="60" as="geometry" />
        </mxCell>
        <mxCell id="K_0mTCyf2OrHfbUbCCtL-35" value="" style="edgeStyle=orthogonalEdgeStyle;rounded=0;orthogonalLoop=1;jettySize=auto;html=1;" edge="1" parent="1" target="K_0mTCyf2OrHfbUbCCtL-34">
          <mxGeometry relative="1" as="geometry">
            <mxPoint x="-120" y="570" as="sourcePoint" />
          </mxGeometry>
        </mxCell>
        <mxCell id="K_0mTCyf2OrHfbUbCCtL-33" value="B" style="text;html=1;whiteSpace=wrap;strokeColor=none;fillColor=none;align=center;verticalAlign=middle;rounded=0;" vertex="1" parent="1">
          <mxGeometry x="-150" y="520" width="60" height="30" as="geometry" />
        </mxCell>
        <mxCell id="K_0mTCyf2OrHfbUbCCtL-39" value="" style="edgeStyle=orthogonalEdgeStyle;rounded=0;orthogonalLoop=1;jettySize=auto;html=1;" edge="1" parent="1" source="K_0mTCyf2OrHfbUbCCtL-34" target="K_0mTCyf2OrHfbUbCCtL-38">
          <mxGeometry relative="1" as="geometry" />
        </mxCell>
        <mxCell id="K_0mTCyf2OrHfbUbCCtL-118" value="" style="edgeStyle=orthogonalEdgeStyle;rounded=0;orthogonalLoop=1;jettySize=auto;html=1;" edge="1" parent="1" source="K_0mTCyf2OrHfbUbCCtL-34" target="K_0mTCyf2OrHfbUbCCtL-117">
          <mxGeometry relative="1" as="geometry" />
        </mxCell>
        <mxCell id="K_0mTCyf2OrHfbUbCCtL-34" value="&lt;div&gt;&lt;br&gt;&lt;/div&gt;pilihan = 1&lt;div&gt;?&lt;/div&gt;" style="rhombus;whiteSpace=wrap;html=1;" vertex="1" parent="1">
          <mxGeometry x="-160" y="610" width="80" height="80" as="geometry" />
        </mxCell>
        <mxCell id="K_0mTCyf2OrHfbUbCCtL-122" value="" style="edgeStyle=orthogonalEdgeStyle;rounded=0;orthogonalLoop=1;jettySize=auto;html=1;entryX=0;entryY=0.25;entryDx=0;entryDy=0;" edge="1" parent="1" source="K_0mTCyf2OrHfbUbCCtL-36" target="K_0mTCyf2OrHfbUbCCtL-83">
          <mxGeometry relative="1" as="geometry">
            <mxPoint x="-120.93499999999995" y="1040" as="targetPoint" />
            <Array as="points">
              <mxPoint x="-121" y="1070" />
              <mxPoint x="-800" y="1070" />
              <mxPoint x="-800" y="107" />
            </Array>
          </mxGeometry>
        </mxCell>
        <mxCell id="K_0mTCyf2OrHfbUbCCtL-36" value="output&lt;div&gt;data laptop&lt;/div&gt;" style="shape=parallelogram;perimeter=parallelogramPerimeter;whiteSpace=wrap;html=1;fixedSize=1;" vertex="1" parent="1">
          <mxGeometry x="-190" y="870" width="138.13" height="60" as="geometry" />
        </mxCell>
        <mxCell id="K_0mTCyf2OrHfbUbCCtL-43" value="" style="edgeStyle=orthogonalEdgeStyle;rounded=0;orthogonalLoop=1;jettySize=auto;html=1;" edge="1" parent="1" source="K_0mTCyf2OrHfbUbCCtL-38" target="K_0mTCyf2OrHfbUbCCtL-42">
          <mxGeometry relative="1" as="geometry" />
        </mxCell>
        <mxCell id="K_0mTCyf2OrHfbUbCCtL-47" value="" style="edgeStyle=orthogonalEdgeStyle;rounded=0;orthogonalLoop=1;jettySize=auto;html=1;" edge="1" parent="1" source="K_0mTCyf2OrHfbUbCCtL-38" target="K_0mTCyf2OrHfbUbCCtL-46">
          <mxGeometry relative="1" as="geometry" />
        </mxCell>
        <mxCell id="K_0mTCyf2OrHfbUbCCtL-38" value="&lt;div&gt;&lt;br&gt;&lt;/div&gt;pilihan = 2&lt;div&gt;?&lt;/div&gt;" style="rhombus;whiteSpace=wrap;html=1;" vertex="1" parent="1">
          <mxGeometry x="-360" y="610" width="80" height="80" as="geometry" />
        </mxCell>
        <mxCell id="K_0mTCyf2OrHfbUbCCtL-40" value="salah" style="text;html=1;whiteSpace=wrap;strokeColor=none;fillColor=none;align=center;verticalAlign=middle;rounded=0;" vertex="1" parent="1">
          <mxGeometry x="-250" y="610" width="60" height="30" as="geometry" />
        </mxCell>
        <mxCell id="K_0mTCyf2OrHfbUbCCtL-41" value="benar" style="text;html=1;whiteSpace=wrap;strokeColor=none;fillColor=none;align=center;verticalAlign=middle;rounded=0;" vertex="1" parent="1">
          <mxGeometry x="-180" y="700" width="60" height="30" as="geometry" />
        </mxCell>
        <mxCell id="K_0mTCyf2OrHfbUbCCtL-45" value="" style="edgeStyle=orthogonalEdgeStyle;rounded=0;orthogonalLoop=1;jettySize=auto;html=1;" edge="1" parent="1" source="K_0mTCyf2OrHfbUbCCtL-42" target="K_0mTCyf2OrHfbUbCCtL-44">
          <mxGeometry relative="1" as="geometry" />
        </mxCell>
        <mxCell id="K_0mTCyf2OrHfbUbCCtL-42" value="input data&lt;div&gt;laptop&lt;/div&gt;" style="shape=parallelogram;perimeter=parallelogramPerimeter;whiteSpace=wrap;html=1;fixedSize=1;" vertex="1" parent="1">
          <mxGeometry x="-380" y="760" width="120" height="60" as="geometry" />
        </mxCell>
        <mxCell id="K_0mTCyf2OrHfbUbCCtL-81" value="" style="edgeStyle=orthogonalEdgeStyle;rounded=0;orthogonalLoop=1;jettySize=auto;html=1;" edge="1" parent="1" source="K_0mTCyf2OrHfbUbCCtL-44">
          <mxGeometry relative="1" as="geometry">
            <mxPoint x="-690" y="110" as="targetPoint" />
            <Array as="points">
              <mxPoint x="-320" y="1070" />
              <mxPoint x="-800" y="1070" />
              <mxPoint x="-800" y="110" />
            </Array>
          </mxGeometry>
        </mxCell>
        <mxCell id="K_0mTCyf2OrHfbUbCCtL-44" value="tambah data&lt;div&gt;laptop&lt;/div&gt;" style="whiteSpace=wrap;html=1;" vertex="1" parent="1">
          <mxGeometry x="-380" y="870" width="120" height="60" as="geometry" />
        </mxCell>
        <mxCell id="K_0mTCyf2OrHfbUbCCtL-49" value="" style="edgeStyle=orthogonalEdgeStyle;rounded=0;orthogonalLoop=1;jettySize=auto;html=1;" edge="1" parent="1" source="K_0mTCyf2OrHfbUbCCtL-46" target="K_0mTCyf2OrHfbUbCCtL-48">
          <mxGeometry relative="1" as="geometry" />
        </mxCell>
        <mxCell id="K_0mTCyf2OrHfbUbCCtL-53" value="" style="edgeStyle=orthogonalEdgeStyle;rounded=0;orthogonalLoop=1;jettySize=auto;html=1;" edge="1" parent="1" source="K_0mTCyf2OrHfbUbCCtL-46" target="K_0mTCyf2OrHfbUbCCtL-52">
          <mxGeometry relative="1" as="geometry" />
        </mxCell>
        <mxCell id="K_0mTCyf2OrHfbUbCCtL-46" value="&lt;div&gt;&lt;br&gt;&lt;/div&gt;pilihan = 3&lt;div&gt;?&lt;/div&gt;" style="rhombus;whiteSpace=wrap;html=1;" vertex="1" parent="1">
          <mxGeometry x="-513" y="610" width="80" height="80" as="geometry" />
        </mxCell>
        <mxCell id="K_0mTCyf2OrHfbUbCCtL-51" value="" style="edgeStyle=orthogonalEdgeStyle;rounded=0;orthogonalLoop=1;jettySize=auto;html=1;" edge="1" parent="1" source="K_0mTCyf2OrHfbUbCCtL-48" target="K_0mTCyf2OrHfbUbCCtL-50">
          <mxGeometry relative="1" as="geometry" />
        </mxCell>
        <mxCell id="K_0mTCyf2OrHfbUbCCtL-48" value="input dat&lt;div&gt;laptop&lt;/div&gt;" style="shape=parallelogram;perimeter=parallelogramPerimeter;whiteSpace=wrap;html=1;fixedSize=1;" vertex="1" parent="1">
          <mxGeometry x="-533" y="760" width="120" height="60" as="geometry" />
        </mxCell>
        <mxCell id="K_0mTCyf2OrHfbUbCCtL-50" value="update data&lt;div&gt;laptop&lt;/div&gt;" style="whiteSpace=wrap;html=1;" vertex="1" parent="1">
          <mxGeometry x="-533" y="870" width="120" height="60" as="geometry" />
        </mxCell>
        <mxCell id="K_0mTCyf2OrHfbUbCCtL-56" value="" style="edgeStyle=orthogonalEdgeStyle;rounded=0;orthogonalLoop=1;jettySize=auto;html=1;" edge="1" parent="1" source="K_0mTCyf2OrHfbUbCCtL-52" target="K_0mTCyf2OrHfbUbCCtL-54">
          <mxGeometry relative="1" as="geometry" />
        </mxCell>
        <mxCell id="K_0mTCyf2OrHfbUbCCtL-59" value="" style="edgeStyle=orthogonalEdgeStyle;rounded=0;orthogonalLoop=1;jettySize=auto;html=1;" edge="1" parent="1" source="K_0mTCyf2OrHfbUbCCtL-52" target="K_0mTCyf2OrHfbUbCCtL-58">
          <mxGeometry relative="1" as="geometry" />
        </mxCell>
        <mxCell id="K_0mTCyf2OrHfbUbCCtL-52" value="&lt;div&gt;&lt;br&gt;&lt;/div&gt;pilihan = 4&lt;div&gt;?&lt;/div&gt;" style="rhombus;whiteSpace=wrap;html=1;" vertex="1" parent="1">
          <mxGeometry x="-680" y="610" width="80" height="80" as="geometry" />
        </mxCell>
        <mxCell id="K_0mTCyf2OrHfbUbCCtL-57" value="" style="edgeStyle=orthogonalEdgeStyle;rounded=0;orthogonalLoop=1;jettySize=auto;html=1;" edge="1" parent="1" source="K_0mTCyf2OrHfbUbCCtL-54" target="K_0mTCyf2OrHfbUbCCtL-55">
          <mxGeometry relative="1" as="geometry" />
        </mxCell>
        <mxCell id="K_0mTCyf2OrHfbUbCCtL-54" value="input dat&lt;div&gt;laptop&lt;/div&gt;" style="shape=parallelogram;perimeter=parallelogramPerimeter;whiteSpace=wrap;html=1;fixedSize=1;" vertex="1" parent="1">
          <mxGeometry x="-700" y="760" width="120" height="60" as="geometry" />
        </mxCell>
        <mxCell id="K_0mTCyf2OrHfbUbCCtL-55" value="hapus data&lt;div&gt;laptop&lt;/div&gt;" style="whiteSpace=wrap;html=1;" vertex="1" parent="1">
          <mxGeometry x="-700" y="870" width="120" height="60" as="geometry" />
        </mxCell>
        <mxCell id="K_0mTCyf2OrHfbUbCCtL-58" value="C" style="ellipse;whiteSpace=wrap;html=1;" vertex="1" parent="1">
          <mxGeometry x="-785" y="625" width="50" height="50" as="geometry" />
        </mxCell>
        <mxCell id="K_0mTCyf2OrHfbUbCCtL-140" value="" style="edgeStyle=orthogonalEdgeStyle;rounded=0;orthogonalLoop=1;jettySize=auto;html=1;" edge="1" parent="1" source="K_0mTCyf2OrHfbUbCCtL-60" target="K_0mTCyf2OrHfbUbCCtL-68">
          <mxGeometry relative="1" as="geometry" />
        </mxCell>
        <mxCell id="K_0mTCyf2OrHfbUbCCtL-60" value="C" style="ellipse;whiteSpace=wrap;html=1;" vertex="1" parent="1">
          <mxGeometry x="-600" y="210" width="60" height="60" as="geometry" />
        </mxCell>
        <mxCell id="K_0mTCyf2OrHfbUbCCtL-69" value="" style="edgeStyle=orthogonalEdgeStyle;rounded=0;orthogonalLoop=1;jettySize=auto;html=1;" edge="1" parent="1" target="K_0mTCyf2OrHfbUbCCtL-68">
          <mxGeometry relative="1" as="geometry">
            <mxPoint x="-600" y="240" as="sourcePoint" />
          </mxGeometry>
        </mxCell>
        <mxCell id="K_0mTCyf2OrHfbUbCCtL-71" value="" style="edgeStyle=orthogonalEdgeStyle;rounded=0;orthogonalLoop=1;jettySize=auto;html=1;" edge="1" parent="1" source="K_0mTCyf2OrHfbUbCCtL-68" target="K_0mTCyf2OrHfbUbCCtL-70">
          <mxGeometry relative="1" as="geometry" />
        </mxCell>
        <mxCell id="K_0mTCyf2OrHfbUbCCtL-78" value="" style="edgeStyle=orthogonalEdgeStyle;rounded=0;orthogonalLoop=1;jettySize=auto;html=1;entryX=0;entryY=0.5;entryDx=0;entryDy=0;" edge="1" parent="1" source="K_0mTCyf2OrHfbUbCCtL-68">
          <mxGeometry relative="1" as="geometry">
            <mxPoint x="-690" y="110" as="targetPoint" />
            <Array as="points">
              <mxPoint x="-800" y="240" />
              <mxPoint x="-800" y="110" />
            </Array>
          </mxGeometry>
        </mxCell>
        <mxCell id="K_0mTCyf2OrHfbUbCCtL-68" value="&lt;div&gt;&lt;br&gt;&lt;/div&gt;pilihan = 5&lt;div&gt;?&lt;/div&gt;" style="rhombus;whiteSpace=wrap;html=1;" vertex="1" parent="1">
          <mxGeometry x="-730" y="200" width="80" height="80" as="geometry" />
        </mxCell>
        <mxCell id="K_0mTCyf2OrHfbUbCCtL-73" value="" style="edgeStyle=orthogonalEdgeStyle;rounded=0;orthogonalLoop=1;jettySize=auto;html=1;" edge="1" parent="1" source="K_0mTCyf2OrHfbUbCCtL-70" target="K_0mTCyf2OrHfbUbCCtL-72">
          <mxGeometry relative="1" as="geometry" />
        </mxCell>
        <mxCell id="K_0mTCyf2OrHfbUbCCtL-70" value="outpt&lt;div&gt;logout berhasil&lt;/div&gt;" style="shape=parallelogram;perimeter=parallelogramPerimeter;whiteSpace=wrap;html=1;fixedSize=1;" vertex="1" parent="1">
          <mxGeometry x="-750" y="330" width="120" height="60" as="geometry" />
        </mxCell>
        <mxCell id="K_0mTCyf2OrHfbUbCCtL-72" value="END" style="ellipse;whiteSpace=wrap;html=1;" vertex="1" parent="1">
          <mxGeometry x="-735" y="425" width="90" height="45" as="geometry" />
        </mxCell>
        <mxCell id="K_0mTCyf2OrHfbUbCCtL-82" value="" style="verticalLabelPosition=bottom;verticalAlign=top;html=1;shape=offPageConnector;rounded=0;size=0.5;" vertex="1" parent="1">
          <mxGeometry x="-690" y="90" width="60" height="60" as="geometry" />
        </mxCell>
        <mxCell id="K_0mTCyf2OrHfbUbCCtL-83" value="D" style="text;html=1;whiteSpace=wrap;strokeColor=none;fillColor=none;align=center;verticalAlign=middle;rounded=0;" vertex="1" parent="1">
          <mxGeometry x="-690" y="100" width="60" height="30" as="geometry" />
        </mxCell>
        <mxCell id="K_0mTCyf2OrHfbUbCCtL-84" value="" style="endArrow=none;html=1;rounded=0;entryX=0.5;entryY=1;entryDx=0;entryDy=0;" edge="1" parent="1" target="K_0mTCyf2OrHfbUbCCtL-55">
          <mxGeometry width="50" height="50" relative="1" as="geometry">
            <mxPoint x="-640" y="1070" as="sourcePoint" />
            <mxPoint x="-690" y="880" as="targetPoint" />
          </mxGeometry>
        </mxCell>
        <mxCell id="K_0mTCyf2OrHfbUbCCtL-91" style="edgeStyle=orthogonalEdgeStyle;rounded=0;orthogonalLoop=1;jettySize=auto;html=1;exitX=0.75;exitY=0;exitDx=0;exitDy=0;entryX=0.75;entryY=0;entryDx=0;entryDy=0;" edge="1" parent="1" source="K_0mTCyf2OrHfbUbCCtL-86" target="K_0mTCyf2OrHfbUbCCtL-87">
          <mxGeometry relative="1" as="geometry" />
        </mxCell>
        <mxCell id="K_0mTCyf2OrHfbUbCCtL-86" value="" style="verticalLabelPosition=bottom;verticalAlign=top;html=1;shape=offPageConnector;rounded=0;size=0.5;" vertex="1" parent="1">
          <mxGeometry x="20" y="820" width="60" height="60" as="geometry" />
        </mxCell>
        <mxCell id="K_0mTCyf2OrHfbUbCCtL-90" value="" style="edgeStyle=orthogonalEdgeStyle;rounded=0;orthogonalLoop=1;jettySize=auto;html=1;" edge="1" parent="1" source="K_0mTCyf2OrHfbUbCCtL-87" target="K_0mTCyf2OrHfbUbCCtL-24">
          <mxGeometry relative="1" as="geometry" />
        </mxCell>
        <mxCell id="K_0mTCyf2OrHfbUbCCtL-87" value="D" style="text;html=1;whiteSpace=wrap;strokeColor=none;fillColor=none;align=center;verticalAlign=middle;rounded=0;" vertex="1" parent="1">
          <mxGeometry x="20" y="830" width="60" height="30" as="geometry" />
        </mxCell>
        <mxCell id="K_0mTCyf2OrHfbUbCCtL-103" value="" style="edgeStyle=orthogonalEdgeStyle;rounded=0;orthogonalLoop=1;jettySize=auto;html=1;" edge="1" parent="1" source="K_0mTCyf2OrHfbUbCCtL-92" target="K_0mTCyf2OrHfbUbCCtL-96">
          <mxGeometry relative="1" as="geometry" />
        </mxCell>
        <mxCell id="K_0mTCyf2OrHfbUbCCtL-92" value="input&amp;nbsp;&lt;div&gt;username,&lt;/div&gt;&lt;div&gt;password bar&lt;span style=&quot;background-color: transparent; color: light-dark(rgb(0, 0, 0), rgb(255, 255, 255));&quot;&gt;u&lt;/span&gt;&lt;/div&gt;&lt;div&gt;&amp;amp; role&lt;/div&gt;" style="shape=parallelogram;perimeter=parallelogramPerimeter;whiteSpace=wrap;html=1;fixedSize=1;" vertex="1" parent="1">
          <mxGeometry x="330" y="370" width="120" height="60" as="geometry" />
        </mxCell>
        <mxCell id="K_0mTCyf2OrHfbUbCCtL-102" value="" style="edgeStyle=orthogonalEdgeStyle;rounded=0;orthogonalLoop=1;jettySize=auto;html=1;" edge="1" parent="1" source="K_0mTCyf2OrHfbUbCCtL-96" target="K_0mTCyf2OrHfbUbCCtL-100">
          <mxGeometry relative="1" as="geometry" />
        </mxCell>
        <mxCell id="K_0mTCyf2OrHfbUbCCtL-96" value="simpan usename,password,&lt;div&gt;role baru&amp;nbsp;&lt;/div&gt;" style="rounded=0;whiteSpace=wrap;html=1;" vertex="1" parent="1">
          <mxGeometry x="330" y="470" width="120" height="60" as="geometry" />
        </mxCell>
        <mxCell id="K_0mTCyf2OrHfbUbCCtL-99" value="" style="edgeStyle=orthogonalEdgeStyle;rounded=0;orthogonalLoop=1;jettySize=auto;html=1;" edge="1" parent="1" source="K_0mTCyf2OrHfbUbCCtL-97" target="K_0mTCyf2OrHfbUbCCtL-98">
          <mxGeometry relative="1" as="geometry" />
        </mxCell>
        <mxCell id="K_0mTCyf2OrHfbUbCCtL-97" value="output menu&lt;div&gt;1.login&lt;/div&gt;&lt;div&gt;2.register&lt;/div&gt;&lt;div&gt;3.keluar&lt;/div&gt;" style="shape=parallelogram;perimeter=parallelogramPerimeter;whiteSpace=wrap;html=1;fixedSize=1;" vertex="1" parent="1">
          <mxGeometry x="167.50000000000023" y="100" width="120" height="60" as="geometry" />
        </mxCell>
        <mxCell id="K_0mTCyf2OrHfbUbCCtL-98" value="input pilihan" style="shape=parallelogram;perimeter=parallelogramPerimeter;whiteSpace=wrap;html=1;fixedSize=1;" vertex="1" parent="1">
          <mxGeometry x="178.75" y="190" width="100" height="30" as="geometry" />
        </mxCell>
        <mxCell id="K_0mTCyf2OrHfbUbCCtL-107" value="" style="edgeStyle=orthogonalEdgeStyle;rounded=0;orthogonalLoop=1;jettySize=auto;html=1;entryX=1;entryY=0.5;entryDx=0;entryDy=0;" edge="1" parent="1" source="K_0mTCyf2OrHfbUbCCtL-100" target="K_0mTCyf2OrHfbUbCCtL-97">
          <mxGeometry relative="1" as="geometry">
            <mxPoint x="763.6921574519231" y="210" as="targetPoint" />
            <Array as="points">
              <mxPoint x="390" y="690" />
              <mxPoint x="770" y="690" />
              <mxPoint x="770" y="130" />
            </Array>
          </mxGeometry>
        </mxCell>
        <mxCell id="K_0mTCyf2OrHfbUbCCtL-100" value="output&lt;div&gt;register berhasil&lt;/div&gt;" style="shape=parallelogram;perimeter=parallelogramPerimeter;whiteSpace=wrap;html=1;fixedSize=1;rounded=0;" vertex="1" parent="1">
          <mxGeometry x="328.75" y="580" width="122.5" height="60" as="geometry" />
        </mxCell>
        <mxCell id="K_0mTCyf2OrHfbUbCCtL-104" value="END" style="ellipse;whiteSpace=wrap;html=1;" vertex="1" parent="1">
          <mxGeometry x="495" y="415" width="110" height="70" as="geometry" />
        </mxCell>
        <mxCell id="K_0mTCyf2OrHfbUbCCtL-111" value="" style="edgeStyle=orthogonalEdgeStyle;rounded=0;orthogonalLoop=1;jettySize=auto;html=1;" edge="1" parent="1" source="K_0mTCyf2OrHfbUbCCtL-108">
          <mxGeometry relative="1" as="geometry">
            <mxPoint x="278.7693434495192" y="130" as="targetPoint" />
            <Array as="points">
              <mxPoint x="770" y="290" />
              <mxPoint x="770" y="130" />
            </Array>
          </mxGeometry>
        </mxCell>
        <mxCell id="K_0mTCyf2OrHfbUbCCtL-108" value="output&amp;nbsp;&lt;div&gt;Pilihan&amp;nbsp;&lt;div&gt;tidak valid&lt;/div&gt;&lt;/div&gt;" style="shape=parallelogram;perimeter=parallelogramPerimeter;whiteSpace=wrap;html=1;fixedSize=1;" vertex="1" parent="1">
          <mxGeometry x="620" y="260" width="120" height="60" as="geometry" />
        </mxCell>
        <mxCell id="K_0mTCyf2OrHfbUbCCtL-112" value="benar" style="text;html=1;whiteSpace=wrap;strokeColor=none;fillColor=none;align=center;verticalAlign=middle;rounded=0;" vertex="1" parent="1">
          <mxGeometry x="391.25" y="330" width="60" height="30" as="geometry" />
        </mxCell>
        <mxCell id="K_0mTCyf2OrHfbUbCCtL-113" value="benar" style="text;html=1;whiteSpace=wrap;strokeColor=none;fillColor=none;align=center;verticalAlign=middle;rounded=0;" vertex="1" parent="1">
          <mxGeometry x="550" y="335" width="60" height="30" as="geometry" />
        </mxCell>
        <mxCell id="K_0mTCyf2OrHfbUbCCtL-114" value="salah" style="text;html=1;whiteSpace=wrap;strokeColor=none;fillColor=none;align=center;verticalAlign=middle;rounded=0;" vertex="1" parent="1">
          <mxGeometry x="580" y="260" width="60" height="30" as="geometry" />
        </mxCell>
        <mxCell id="K_0mTCyf2OrHfbUbCCtL-116" value="A" style="ellipse;whiteSpace=wrap;html=1;aspect=fixed;" vertex="1" parent="1">
          <mxGeometry x="70" y="675" width="70" height="70" as="geometry" />
        </mxCell>
        <mxCell id="K_0mTCyf2OrHfbUbCCtL-119" value="" style="edgeStyle=orthogonalEdgeStyle;rounded=0;orthogonalLoop=1;jettySize=auto;html=1;" edge="1" parent="1" source="K_0mTCyf2OrHfbUbCCtL-117" target="K_0mTCyf2OrHfbUbCCtL-36">
          <mxGeometry relative="1" as="geometry" />
        </mxCell>
        <mxCell id="K_0mTCyf2OrHfbUbCCtL-117" value="tampilkan data&lt;div&gt;terbaru&lt;/div&gt;" style="whiteSpace=wrap;html=1;" vertex="1" parent="1">
          <mxGeometry x="-180" y="760" width="120" height="60" as="geometry" />
        </mxCell>
        <mxCell id="K_0mTCyf2OrHfbUbCCtL-120" value="" style="endArrow=none;html=1;rounded=0;entryX=0.5;entryY=1;entryDx=0;entryDy=0;" edge="1" parent="1">
          <mxGeometry width="50" height="50" relative="1" as="geometry">
            <mxPoint x="-472" y="1072" as="sourcePoint" />
            <mxPoint x="-472" y="932" as="targetPoint" />
          </mxGeometry>
        </mxCell>
        <mxCell id="K_0mTCyf2OrHfbUbCCtL-123" value="salah" style="text;html=1;whiteSpace=wrap;strokeColor=none;fillColor=none;align=center;verticalAlign=middle;rounded=0;" vertex="1" parent="1">
          <mxGeometry x="-420" y="610" width="60" height="30" as="geometry" />
        </mxCell>
        <mxCell id="K_0mTCyf2OrHfbUbCCtL-124" value="salah" style="text;html=1;whiteSpace=wrap;strokeColor=none;fillColor=none;align=center;verticalAlign=middle;rounded=0;" vertex="1" parent="1">
          <mxGeometry x="-590" y="610" width="60" height="30" as="geometry" />
        </mxCell>
        <mxCell id="K_0mTCyf2OrHfbUbCCtL-125" value="salah" style="text;html=1;whiteSpace=wrap;strokeColor=none;fillColor=none;align=center;verticalAlign=middle;rounded=0;" vertex="1" parent="1">
          <mxGeometry x="-735" y="610" width="60" height="30" as="geometry" />
        </mxCell>
        <mxCell id="K_0mTCyf2OrHfbUbCCtL-126" value="salah" style="text;html=1;whiteSpace=wrap;strokeColor=none;fillColor=none;align=center;verticalAlign=middle;rounded=0;" vertex="1" parent="1">
          <mxGeometry x="-785" y="210" width="60" height="30" as="geometry" />
        </mxCell>
        <mxCell id="K_0mTCyf2OrHfbUbCCtL-127" value="benar" style="text;html=1;whiteSpace=wrap;strokeColor=none;fillColor=none;align=center;verticalAlign=middle;rounded=0;" vertex="1" parent="1">
          <mxGeometry x="-750" y="280" width="60" height="30" as="geometry" />
        </mxCell>
        <mxCell id="K_0mTCyf2OrHfbUbCCtL-128" value="benar" style="text;html=1;whiteSpace=wrap;strokeColor=none;fillColor=none;align=center;verticalAlign=middle;rounded=0;" vertex="1" parent="1">
          <mxGeometry x="-380" y="700" width="60" height="30" as="geometry" />
        </mxCell>
        <mxCell id="K_0mTCyf2OrHfbUbCCtL-130" value="benar" style="text;html=1;whiteSpace=wrap;strokeColor=none;fillColor=none;align=center;verticalAlign=middle;rounded=0;" vertex="1" parent="1">
          <mxGeometry x="-540" y="700" width="60" height="30" as="geometry" />
        </mxCell>
        <mxCell id="K_0mTCyf2OrHfbUbCCtL-131" value="benar" style="text;html=1;whiteSpace=wrap;strokeColor=none;fillColor=none;align=center;verticalAlign=middle;rounded=0;" vertex="1" parent="1">
          <mxGeometry x="-705" y="700" width="60" height="30" as="geometry" />
        </mxCell>
        <mxCell id="K_0mTCyf2OrHfbUbCCtL-135" value="" style="edgeStyle=orthogonalEdgeStyle;rounded=0;orthogonalLoop=1;jettySize=auto;html=1;" edge="1" parent="1" source="K_0mTCyf2OrHfbUbCCtL-133" target="K_0mTCyf2OrHfbUbCCtL-134">
          <mxGeometry relative="1" as="geometry" />
        </mxCell>
        <mxCell id="K_0mTCyf2OrHfbUbCCtL-133" value="A" style="ellipse;whiteSpace=wrap;html=1;aspect=fixed;" vertex="1" parent="1">
          <mxGeometry x="700" y="755" width="70" height="70" as="geometry" />
        </mxCell>
        <mxCell id="K_0mTCyf2OrHfbUbCCtL-137" value="" style="edgeStyle=orthogonalEdgeStyle;rounded=0;orthogonalLoop=1;jettySize=auto;html=1;" edge="1" parent="1" source="K_0mTCyf2OrHfbUbCCtL-134" target="K_0mTCyf2OrHfbUbCCtL-136">
          <mxGeometry relative="1" as="geometry" />
        </mxCell>
        <mxCell id="K_0mTCyf2OrHfbUbCCtL-134" value="output&lt;div&gt;1. Lihat data laptop&lt;/div&gt;&lt;div&gt;5. Logout&lt;/div&gt;" style="shape=parallelogram;perimeter=parallelogramPerimeter;whiteSpace=wrap;html=1;fixedSize=1;" vertex="1" parent="1">
          <mxGeometry x="520" y="755" width="130" height="70" as="geometry" />
        </mxCell>
        <mxCell id="K_0mTCyf2OrHfbUbCCtL-139" value="" style="edgeStyle=orthogonalEdgeStyle;rounded=0;orthogonalLoop=1;jettySize=auto;html=1;" edge="1" parent="1" source="K_0mTCyf2OrHfbUbCCtL-136">
          <mxGeometry relative="1" as="geometry">
            <mxPoint x="585" y="950" as="targetPoint" />
          </mxGeometry>
        </mxCell>
        <mxCell id="K_0mTCyf2OrHfbUbCCtL-136" value="input pilihan" style="shape=parallelogram;perimeter=parallelogramPerimeter;whiteSpace=wrap;html=1;fixedSize=1;" vertex="1" parent="1">
          <mxGeometry x="530" y="860" width="110" height="40" as="geometry" />
        </mxCell>
        <mxCell id="K_0mTCyf2OrHfbUbCCtL-144" value="" style="verticalLabelPosition=bottom;verticalAlign=top;html=1;shape=offPageConnector;rounded=0;size=0.5;" vertex="1" parent="1">
          <mxGeometry x="555" y="950" width="60" height="60" as="geometry" />
        </mxCell>
        <mxCell id="K_0mTCyf2OrHfbUbCCtL-145" value="E" style="text;html=1;whiteSpace=wrap;strokeColor=none;fillColor=none;align=center;verticalAlign=middle;rounded=0;" vertex="1" parent="1">
          <mxGeometry x="555" y="960" width="60" height="30" as="geometry" />
        </mxCell>
        <mxCell id="K_0mTCyf2OrHfbUbCCtL-146" value="" style="verticalLabelPosition=bottom;verticalAlign=top;html=1;shape=offPageConnector;rounded=0;size=0.5;" vertex="1" parent="1">
          <mxGeometry x="-80" y="40" width="60" height="60" as="geometry" />
        </mxCell>
        <mxCell id="K_0mTCyf2OrHfbUbCCtL-149" value="" style="edgeStyle=orthogonalEdgeStyle;rounded=0;orthogonalLoop=1;jettySize=auto;html=1;" edge="1" parent="1" source="K_0mTCyf2OrHfbUbCCtL-147" target="K_0mTCyf2OrHfbUbCCtL-148">
          <mxGeometry relative="1" as="geometry" />
        </mxCell>
        <mxCell id="K_0mTCyf2OrHfbUbCCtL-147" value="E" style="text;html=1;whiteSpace=wrap;strokeColor=none;fillColor=none;align=center;verticalAlign=middle;rounded=0;" vertex="1" parent="1">
          <mxGeometry x="-80" y="50" width="60" height="30" as="geometry" />
        </mxCell>
        <mxCell id="K_0mTCyf2OrHfbUbCCtL-152" value="" style="edgeStyle=orthogonalEdgeStyle;rounded=0;orthogonalLoop=1;jettySize=auto;html=1;" edge="1" parent="1" source="K_0mTCyf2OrHfbUbCCtL-148" target="K_0mTCyf2OrHfbUbCCtL-150">
          <mxGeometry relative="1" as="geometry" />
        </mxCell>
        <mxCell id="K_0mTCyf2OrHfbUbCCtL-155" value="" style="edgeStyle=orthogonalEdgeStyle;rounded=0;orthogonalLoop=1;jettySize=auto;html=1;" edge="1" parent="1" source="K_0mTCyf2OrHfbUbCCtL-148" target="K_0mTCyf2OrHfbUbCCtL-154">
          <mxGeometry relative="1" as="geometry" />
        </mxCell>
        <mxCell id="K_0mTCyf2OrHfbUbCCtL-148" value="&lt;div&gt;&lt;span style=&quot;background-color: transparent; color: light-dark(rgb(0, 0, 0), rgb(255, 255, 255));&quot;&gt;&lt;br&gt;&lt;/span&gt;&lt;/div&gt;&lt;div&gt;&lt;span style=&quot;background-color: transparent; color: light-dark(rgb(0, 0, 0), rgb(255, 255, 255));&quot;&gt;pilihan = 1&lt;/span&gt;&lt;/div&gt;&lt;div&gt;&lt;span style=&quot;background-color: transparent; color: light-dark(rgb(0, 0, 0), rgb(255, 255, 255));&quot;&gt;?&lt;/span&gt;&lt;/div&gt;" style="rhombus;whiteSpace=wrap;html=1;" vertex="1" parent="1">
          <mxGeometry x="-230" y="25" width="80" height="80" as="geometry" />
        </mxCell>
        <mxCell id="K_0mTCyf2OrHfbUbCCtL-153" value="" style="edgeStyle=orthogonalEdgeStyle;rounded=0;orthogonalLoop=1;jettySize=auto;html=1;" edge="1" parent="1" source="K_0mTCyf2OrHfbUbCCtL-150" target="K_0mTCyf2OrHfbUbCCtL-151">
          <mxGeometry relative="1" as="geometry" />
        </mxCell>
        <mxCell id="K_0mTCyf2OrHfbUbCCtL-150" value="tampilkan data&lt;div&gt;terbaru&lt;/div&gt;" style="whiteSpace=wrap;html=1;" vertex="1" parent="1">
          <mxGeometry x="-250" y="140" width="120" height="60" as="geometry" />
        </mxCell>
        <mxCell id="K_0mTCyf2OrHfbUbCCtL-163" value="" style="edgeStyle=orthogonalEdgeStyle;rounded=0;orthogonalLoop=1;jettySize=auto;html=1;entryX=0.5;entryY=1;entryDx=0;entryDy=0;" edge="1" parent="1" source="K_0mTCyf2OrHfbUbCCtL-151" target="K_0mTCyf2OrHfbUbCCtL-164">
          <mxGeometry relative="1" as="geometry">
            <mxPoint x="-460" y="100" as="targetPoint" />
            <Array as="points">
              <mxPoint x="-190" y="390" />
              <mxPoint x="-463" y="390" />
            </Array>
          </mxGeometry>
        </mxCell>
        <mxCell id="K_0mTCyf2OrHfbUbCCtL-151" value="output&lt;div&gt;data laptop&lt;/div&gt;" style="shape=parallelogram;perimeter=parallelogramPerimeter;whiteSpace=wrap;html=1;fixedSize=1;" vertex="1" parent="1">
          <mxGeometry x="-259.06" y="250" width="138.13" height="60" as="geometry" />
        </mxCell>
        <mxCell id="K_0mTCyf2OrHfbUbCCtL-157" value="" style="edgeStyle=orthogonalEdgeStyle;rounded=0;orthogonalLoop=1;jettySize=auto;html=1;" edge="1" parent="1" source="K_0mTCyf2OrHfbUbCCtL-154" target="K_0mTCyf2OrHfbUbCCtL-156">
          <mxGeometry relative="1" as="geometry" />
        </mxCell>
        <mxCell id="K_0mTCyf2OrHfbUbCCtL-159" value="" style="edgeStyle=orthogonalEdgeStyle;rounded=0;orthogonalLoop=1;jettySize=auto;html=1;" edge="1" parent="1" source="K_0mTCyf2OrHfbUbCCtL-154" target="K_0mTCyf2OrHfbUbCCtL-158">
          <mxGeometry relative="1" as="geometry" />
        </mxCell>
        <mxCell id="K_0mTCyf2OrHfbUbCCtL-165" value="" style="edgeStyle=orthogonalEdgeStyle;rounded=0;orthogonalLoop=1;jettySize=auto;html=1;" edge="1" parent="1" source="K_0mTCyf2OrHfbUbCCtL-154" target="K_0mTCyf2OrHfbUbCCtL-164">
          <mxGeometry relative="1" as="geometry" />
        </mxCell>
        <mxCell id="K_0mTCyf2OrHfbUbCCtL-154" value="&lt;div&gt;&lt;span style=&quot;background-color: transparent; color: light-dark(rgb(0, 0, 0), rgb(255, 255, 255));&quot;&gt;&lt;br&gt;&lt;/span&gt;&lt;/div&gt;&lt;div&gt;&lt;span style=&quot;background-color: transparent; color: light-dark(rgb(0, 0, 0), rgb(255, 255, 255));&quot;&gt;pilihan = 5&lt;/span&gt;&lt;/div&gt;&lt;div&gt;&lt;span style=&quot;background-color: transparent; color: light-dark(rgb(0, 0, 0), rgb(255, 255, 255));&quot;&gt;?&lt;/span&gt;&lt;/div&gt;" style="rhombus;whiteSpace=wrap;html=1;" vertex="1" parent="1">
          <mxGeometry x="-390" y="25" width="80" height="80" as="geometry" />
        </mxCell>
        <mxCell id="K_0mTCyf2OrHfbUbCCtL-156" value="END" style="ellipse;whiteSpace=wrap;html=1;" vertex="1" parent="1">
          <mxGeometry x="-390" y="252.5" width="80" height="55" as="geometry" />
        </mxCell>
        <mxCell id="K_0mTCyf2OrHfbUbCCtL-158" value="output&lt;div&gt;logout berhasil&lt;/div&gt;" style="shape=parallelogram;perimeter=parallelogramPerimeter;whiteSpace=wrap;html=1;fixedSize=1;" vertex="1" parent="1">
          <mxGeometry x="-410" y="150" width="120" height="50" as="geometry" />
        </mxCell>
        <mxCell id="K_0mTCyf2OrHfbUbCCtL-164" value="" style="verticalLabelPosition=bottom;verticalAlign=top;html=1;shape=offPageConnector;rounded=0;size=0.5833333333333353;" vertex="1" parent="1">
          <mxGeometry x="-493" y="35" width="60" height="60" as="geometry" />
        </mxCell>
        <mxCell id="K_0mTCyf2OrHfbUbCCtL-166" value="F" style="text;html=1;whiteSpace=wrap;strokeColor=none;fillColor=none;align=center;verticalAlign=middle;rounded=0;" vertex="1" parent="1">
          <mxGeometry x="-493" y="50" width="60" height="30" as="geometry" />
        </mxCell>
        <mxCell id="K_0mTCyf2OrHfbUbCCtL-168" value="" style="verticalLabelPosition=bottom;verticalAlign=top;html=1;shape=offPageConnector;rounded=0;size=0.5;" vertex="1" parent="1">
          <mxGeometry x="391.25" y="765" width="60" height="60" as="geometry" />
        </mxCell>
        <mxCell id="K_0mTCyf2OrHfbUbCCtL-170" value="" style="edgeStyle=orthogonalEdgeStyle;rounded=0;orthogonalLoop=1;jettySize=auto;html=1;" edge="1" parent="1" source="K_0mTCyf2OrHfbUbCCtL-169" target="K_0mTCyf2OrHfbUbCCtL-134">
          <mxGeometry relative="1" as="geometry" />
        </mxCell>
        <mxCell id="K_0mTCyf2OrHfbUbCCtL-169" value="F" style="text;html=1;whiteSpace=wrap;strokeColor=none;fillColor=none;align=center;verticalAlign=middle;rounded=0;" vertex="1" parent="1">
          <mxGeometry x="390" y="775" width="60" height="30" as="geometry" />
        </mxCell>
      </root>
    </mxGraphModel>
  </diagram>
  <diagram id="JvnTX77ewDIwUuc0hLr_" name="Halaman-2">
    <mxGraphModel dx="20840" dy="10200" grid="1" gridSize="10" guides="1" tooltips="1" connect="1" arrows="1" fold="1" page="1" pageScale="1" pageWidth="827" pageHeight="1169" math="0" shadow="0">
      <root>
        <mxCell id="0" />
        <mxCell id="1" parent="0" />
      </root>
    </mxGraphModel>
  </diagram>
</mxfile>
